<?xml version="1.0" encoding="UTF-8"?>
<svg id="Layer_1" data-name="Layer 1" xmlns="http://www.w3.org/2000/svg" viewBox="0 0 235.51 35">
  <defs>
    <style>
      .cls-1 {
        fill: #bc2026;
      }

      .cls-2 {
        fill: #fff;
      }

      .cls-3 {
        fill: #f04e4d;
      }
    </style>
  </defs>
  <path class="cls-1" d="M36,5H4C1.79,5,0,6.79,0,9v22c0,2.21,1.79,4,4,4h32c2.21,0,4-1.79,4-4V9c0-2.21-1.79-4-4-4Z"/>
  <path class="cls-3" d="M46,0H14c-2.21,0-4,1.79-4,4v22c0,2.21,1.79,4,4,4h32c2.21,0,4-1.79,4-4V4c0-2.21-1.79-4-4-4Z"/>
  <path class="cls-2" d="M72.58,26.17c-1.23,0-2.34-.2-3.31-.6-.98-.4-1.76-.99-2.35-1.78-.58-.78-.88-1.73-.91-2.83h4.37c.06.62.28,1.1.65,1.44.37.32.85.48,1.44.48s1.09-.14,1.44-.41c.35-.29.53-.68.53-1.18,0-.42-.14-.76-.43-1.03-.27-.27-.62-.5-1.03-.67-.4-.18-.98-.38-1.73-.6-1.09-.34-1.98-.67-2.66-1.01-.69-.34-1.28-.83-1.78-1.49-.5-.66-.74-1.51-.74-2.57,0-1.57.57-2.79,1.7-3.67,1.14-.9,2.62-1.34,4.44-1.34s3.35.45,4.49,1.34c1.14.88,1.74,2.11,1.82,3.7h-4.44c-.03-.54-.23-.97-.6-1.27-.37-.32-.84-.48-1.42-.48-.5,0-.9.14-1.2.41-.3.26-.46.63-.46,1.13,0,.54.26.97.77,1.27s1.31.63,2.4.98c1.09.37,1.97.72,2.64,1.06.69.34,1.28.82,1.78,1.46.5.64.74,1.46.74,2.47s-.25,1.83-.74,2.62c-.48.78-1.18,1.41-2.11,1.87s-2.02.7-3.29.7ZM98.34,12.46c1.66,0,2.98.5,3.96,1.51.99,1.01,1.49,2.41,1.49,4.2v7.82h-4.08v-7.27c0-.86-.23-1.53-.7-1.99-.45-.48-1.07-.72-1.87-.72s-1.43.24-1.9.72c-.45.46-.67,1.13-.67,1.99v7.27h-4.08v-7.27c0-.86-.23-1.53-.7-1.99-.45-.48-1.07-.72-1.87-.72s-1.43.24-1.9.72c-.45.46-.67,1.13-.67,1.99v7.27h-4.1v-13.39h4.1v1.68c.42-.56.96-1,1.63-1.32.67-.34,1.43-.5,2.28-.5,1.01,0,1.9.22,2.69.65.8.43,1.42,1.05,1.87,1.85.46-.74,1.1-1.34,1.9-1.8.8-.46,1.67-.7,2.62-.7ZM105.84,19.28c0-1.38.26-2.58.77-3.62.53-1.04,1.24-1.84,2.14-2.4.9-.56,1.9-.84,3-.84.94,0,1.77.19,2.47.58.72.38,1.27.89,1.66,1.51v-1.9h4.1v13.39h-4.1v-1.9c-.4.62-.96,1.13-1.68,1.51-.7.38-1.53.58-2.47.58-1.09,0-2.08-.28-2.98-.84-.9-.58-1.61-1.38-2.14-2.42-.51-1.06-.77-2.27-.77-3.65ZM115.88,19.3c0-1.02-.29-1.83-.86-2.42-.56-.59-1.25-.89-2.06-.89s-1.51.3-2.09.89c-.56.58-.84,1.38-.84,2.4s.28,1.84.84,2.45c.58.59,1.27.89,2.09.89s1.5-.3,2.06-.89c.58-.59.86-1.4.86-2.42ZM127.05,14.84c.48-.74,1.08-1.31,1.8-1.73.72-.43,1.52-.65,2.4-.65v4.34h-1.13c-1.02,0-1.79.22-2.3.67-.51.43-.77,1.2-.77,2.3v6.22h-4.1v-13.39h4.1v2.23ZM140.68,22.52v3.48h-2.09c-1.49,0-2.65-.36-3.48-1.08-.83-.74-1.25-1.93-1.25-3.58v-5.33h-1.63v-3.41h1.63v-3.26h4.1v3.26h2.69v3.41h-2.69v5.38c0,.4.1.69.29.86.19.18.51.26.96.26h1.46ZM148.63,26.17c-1.1,0-2.1-.19-2.98-.58-.86-.4-1.54-.94-2.04-1.63-.5-.7-.75-1.51-.77-2.42h2.33c.08.78.4,1.45.96,1.99.58.53,1.41.79,2.5.79s1.86-.26,2.45-.77c.61-.53.91-1.2.91-2.02,0-.64-.18-1.16-.53-1.56s-.79-.7-1.32-.91c-.53-.21-1.24-.43-2.14-.67-1.1-.29-1.99-.58-2.66-.86-.66-.29-1.22-.74-1.7-1.34-.46-.62-.7-1.46-.7-2.5,0-.91.23-1.72.7-2.42.46-.7,1.11-1.25,1.94-1.63.85-.38,1.82-.58,2.9-.58,1.57,0,2.85.39,3.84,1.18,1.01.78,1.58,1.82,1.7,3.12h-2.4c-.08-.64-.42-1.2-1.01-1.68-.59-.5-1.38-.74-2.35-.74-.91,0-1.66.24-2.23.72-.58.46-.86,1.12-.86,1.97,0,.61.17,1.1.5,1.49.35.38.78.68,1.27.89.51.19,1.22.42,2.14.67,1.1.3,1.99.61,2.66.91.67.29,1.25.74,1.73,1.37.48.61.72,1.44.72,2.5,0,.82-.22,1.58-.65,2.3-.43.72-1.07,1.3-1.92,1.75-.85.45-1.85.67-3,.67ZM156.6,19.4c0-1.36.27-2.54.82-3.55.54-1.02,1.3-1.82,2.26-2.38.98-.56,2.09-.84,3.34-.84,1.62,0,2.94.39,3.98,1.18,1.06.78,1.75,1.87,2.09,3.26h-2.35c-.22-.8-.66-1.43-1.32-1.9-.64-.46-1.44-.7-2.4-.7-1.25,0-2.26.43-3.02,1.3-.77.85-1.15,2.06-1.15,3.62s.38,2.81,1.15,3.67c.77.86,1.78,1.3,3.02,1.3.96,0,1.76-.22,2.4-.67s1.08-1.09,1.32-1.92h2.35c-.35,1.34-1.06,2.42-2.11,3.24-1.06.8-2.38,1.2-3.96,1.2-1.25,0-2.36-.28-3.34-.84-.96-.56-1.71-1.35-2.26-2.38-.54-1.02-.82-2.22-.82-3.6ZM174.17,14.98c.38-.75.93-1.34,1.63-1.75.72-.42,1.59-.62,2.62-.62v2.26h-.58c-2.45,0-3.67,1.33-3.67,3.98v7.15h-2.18v-13.15h2.18v2.14ZM192.94,18.92c0,.42-.02.86-.07,1.32h-10.51c.08,1.3.52,2.31,1.32,3.05.82.72,1.8,1.08,2.95,1.08.94,0,1.73-.22,2.35-.65.64-.45,1.09-1.04,1.34-1.78h2.35c-.35,1.26-1.06,2.3-2.11,3.1-1.06.78-2.37,1.18-3.94,1.18-1.25,0-2.37-.28-3.36-.84-.98-.56-1.74-1.35-2.3-2.38-.56-1.04-.84-2.24-.84-3.6s.27-2.55.82-3.58c.54-1.02,1.3-1.81,2.28-2.35.99-.56,2.13-.84,3.41-.84s2.35.27,3.31.82c.96.54,1.7,1.3,2.21,2.26.53.94.79,2.02.79,3.22ZM190.69,18.46c0-.83-.18-1.54-.55-2.14-.37-.61-.87-1.06-1.51-1.37-.62-.32-1.32-.48-2.09-.48-1.1,0-2.05.35-2.83,1.06-.77.7-1.21,1.68-1.32,2.93h8.3ZM207.82,18.92c0,.42-.02.86-.07,1.32h-10.51c.08,1.3.52,2.31,1.32,3.05.82.72,1.8,1.08,2.95,1.08.94,0,1.73-.22,2.35-.65.64-.45,1.09-1.04,1.34-1.78h2.35c-.35,1.26-1.06,2.3-2.11,3.1-1.06.78-2.37,1.18-3.94,1.18-1.25,0-2.37-.28-3.36-.84-.98-.56-1.74-1.35-2.3-2.38-.56-1.04-.84-2.24-.84-3.6s.27-2.55.82-3.58c.54-1.02,1.3-1.81,2.28-2.35.99-.56,2.13-.84,3.41-.84s2.35.27,3.31.82c.96.54,1.7,1.3,2.21,2.26.53.94.79,2.02.79,3.22ZM205.57,18.46c0-.83-.18-1.54-.55-2.14-.37-.61-.87-1.06-1.51-1.37-.62-.32-1.32-.48-2.09-.48-1.1,0-2.05.35-2.83,1.06-.77.7-1.21,1.68-1.32,2.93h8.3ZM217.12,12.61c1.6,0,2.9.49,3.89,1.46.99.96,1.49,2.35,1.49,4.18v7.75h-2.16v-7.44c0-1.31-.33-2.31-.98-3-.66-.7-1.55-1.06-2.69-1.06s-2.07.36-2.76,1.08c-.67.72-1.01,1.77-1.01,3.14v7.27h-2.18v-13.15h2.18v1.87c.43-.67,1.02-1.19,1.75-1.56.75-.37,1.58-.55,2.47-.55ZM230.71,26.22c-1.01,0-1.91-.17-2.71-.5-.8-.35-1.43-.83-1.9-1.44-.46-.62-.72-1.34-.77-2.14h2.26c.06.66.37,1.19.91,1.61.56.42,1.29.62,2.18.62.83,0,1.49-.18,1.97-.55.48-.37.72-.83.72-1.39s-.26-1-.77-1.27c-.51-.29-1.3-.57-2.38-.84-.98-.26-1.78-.51-2.4-.77-.61-.27-1.14-.66-1.58-1.18-.43-.53-.65-1.22-.65-2.06,0-.67.2-1.29.6-1.85.4-.56.97-1,1.7-1.32.74-.34,1.58-.5,2.52-.5,1.46,0,2.63.37,3.53,1.1s1.38,1.74,1.44,3.02h-2.18c-.05-.69-.33-1.24-.84-1.66-.5-.42-1.17-.62-2.02-.62-.78,0-1.41.17-1.87.5-.46.34-.7.78-.7,1.32,0,.43.14.79.41,1.08.29.27.64.5,1.06.67.43.16,1.02.34,1.78.55.94.26,1.71.51,2.3.77.59.24,1.1.61,1.51,1.1.43.5.66,1.14.67,1.94,0,.72-.2,1.37-.6,1.94-.4.58-.97,1.03-1.7,1.37-.72.32-1.55.48-2.5.48Z"/>
</svg>